<?xml version="1.0" encoding="UTF-8" standalone="no"?>
<!DOCTYPE svg PUBLIC "-//W3C//DTD SVG 1.1//EN" "http://www.w3.org/Graphics/SVG/1.1/DTD/svg11.dtd">
<svg width="100%" height="100%" viewBox="0 0 1000 1500" version="1.1" xmlns="http://www.w3.org/2000/svg" xmlns:xlink="http://www.w3.org/1999/xlink" xml:space="preserve" xmlns:serif="http://www.serif.com/" style="fill-rule:evenodd;clip-rule:evenodd;stroke-linejoin:round;stroke-miterlimit:2;">
    <g>
        <path d="M674.318,645.356l96.368,-35.546c52.643,-19.302 110.966,7.726 130.269,60.369c3.654,9.969 5.645,20.14 6.119,30.213c7.783,81.669 84.406,1051.74 -731.857,602.065c-49.132,-26.979 -107.761,-115.116 -80.781,-164.249c26.979,-49.134 131.384,-40.657 180.516,-13.679c348.517,232.215 394.092,-6.475 422.743,-175.241c16.986,-100.051 -29.544,-81.57 -52.467,-76.783c-32.741,12.555 -49.53,-0.626 -44.468,-34.7l15.197,-110.321c1.974,-26.848 18.571,-64.751 58.361,-82.128Zm41.339,-313.377c60.364,-0 109.299,48.935 109.299,109.3c0,60.365 -48.935,109.3 -109.299,109.3c-60.365,0 -109.3,-48.935 -109.3,-109.3c0,-60.365 48.935,-109.3 109.3,-109.3Zm-466.79,-120.837c3.289,-55.932 51.299,-135.211 107.233,-131.92c55.933,3.29 98.608,87.902 95.319,143.835l-27.46,435.277c-5.256,44.312 21.056,67.837 63.091,54.704l30.62,-10.392c33.068,-8.86 31.868,21.939 27.225,45.412l-17.11,124.211c-4.072,30.388 -19.296,54.004 -56.441,66.407l-126.922,45.799l-0.018,-1.068c-12.692,4.661 -26.529,6.854 -40.888,6.009c-55.932,-3.291 -98.609,-51.301 -95.318,-107.234l40.669,-671.04Z" style="fill:#fa5252;fill-rule:nonzero;"/>
    </g>
</svg>
