<?xml version="1.0" standalone="no"?>
<!DOCTYPE svg PUBLIC "-//W3C//DTD SVG 20010904//EN"
 "http://www.w3.org/TR/2001/REC-SVG-20010904/DTD/svg10.dtd">
<svg version="1.0" xmlns="http://www.w3.org/2000/svg"
 width="700.000000pt" height="700.000000pt" viewBox="0 0 700.000000 700.000000"
 preserveAspectRatio="xMidYMid meet">
<metadata>
Created by potrace 1.14, written by Peter Selinger 2001-2017
</metadata>
<g transform="translate(0.000000,700.000000) scale(0.100000,-0.100000)"
fill="#000000" stroke="none">
<path d="M2725 6617 c-159 -53 -329 -273 -378 -492 -16 -68 -20 -110 -32 -325
-3 -58 -8 -134 -10 -170 -3 -36 -7 -105 -10 -155 -9 -145 -15 -245 -20 -325
-3 -41 -7 -118 -10 -170 -3 -52 -7 -131 -10 -175 -6 -93 -12 -189 -20 -330 -3
-55 -8 -129 -10 -165 -9 -141 -16 -249 -20 -325 -7 -138 -15 -257 -20 -330 -2
-38 -7 -117 -11 -175 -3 -58 -8 -125 -9 -150 -2 -25 -6 -103 -10 -175 -4 -71
-8 -146 -11 -165 -6 -60 -6 -187 2 -227 13 -74 72 -181 132 -241 118 -116 272
-161 440 -126 80 17 661 222 731 259 115 60 174 174 196 380 1 17 6 48 9 70 3
22 15 105 26 185 11 80 24 168 28 195 14 97 9 191 -12 214 -33 36 -72 35 -191
-4 -162 -53 -237 -50 -302 14 -60 60 -66 104 -48 370 3 53 8 125 10 161 11
179 16 270 20 320 2 30 7 100 10 155 3 55 8 125 10 155 2 30 6 105 10 165 3
61 8 137 10 170 6 85 15 216 20 310 3 44 7 112 10 150 22 322 22 329 13 395
-18 135 -63 251 -141 365 -110 162 -265 236 -402 192z"/>
<path d="M4380 5435 c-226 -64 -379 -260 -382 -488 -2 -169 73 -315 217 -425
66 -51 174 -85 281 -88 75 -2 103 2 164 22 169 57 294 189 340 358 20 72 17
199 -5 271 -50 160 -166 281 -322 337 -77 27 -218 34 -293 13z"/>
<path d="M4849 4174 c-69 -13 -495 -166 -575 -207 -114 -59 -210 -200 -229
-335 -3 -20 -7 -50 -9 -67 -3 -16 -14 -97 -25 -180 -12 -82 -24 -168 -27 -190
-25 -172 -19 -230 26 -267 20 -16 35 -19 85 -15 33 3 84 12 112 20 69 20 147
16 174 -9 42 -38 53 -74 53 -179 1 -116 -1 -130 -48 -370 -44 -227 -40 -210
-76 -337 -109 -383 -274 -607 -513 -696 -186 -70 -457 -41 -749 79 -88 37
-396 197 -427 222 -7 6 -22 16 -32 22 -10 5 -51 30 -91 56 -143 89 -287 128
-478 130 -173 2 -307 -38 -377 -113 -59 -63 -81 -183 -53 -288 13 -48 70 -192
79 -200 3 -3 24 -32 45 -65 41 -63 170 -198 221 -232 92 -61 578 -303 609
-303 7 0 16 -4 22 -9 31 -28 416 -158 594 -200 133 -32 187 -41 325 -59 79 -9
374 -9 450 1 219 28 481 131 632 248 21 16 50 39 65 50 112 85 276 286 370
449 170 300 306 730 363 1150 3 25 8 56 10 70 2 14 7 51 10 83 10 112 16 173
20 212 27 259 21 885 -10 1124 -13 106 -57 193 -133 271 -110 111 -265 161
-413 134z"/>
</g>
</svg>
