<?xml version="1.0" ?>
<svg xmlns="http://www.w3.org/2000/svg" xmlns:ev="http://www.w3.org/2001/xml-events" xmlns:xlink="http://www.w3.org/1999/xlink" baseProfile="full" height="600px" version="1.1" viewBox="-2.4120000000000004 -2.4120000000000004 28.824000000000005 28.824000000000005" width="600px">
	<defs/>
	<path d="M 7.508,0.0 C 7.221,0.0 6.9350000000000005,0.0 6.648,0.002 C 6.407,0.004 6.165,0.005 5.9239999999999995,0.012 C 5.792,0.015 5.661,0.020999999999999998 5.529,0.027 A 9.154,9.154 0.0 0,0 4.348,0.15 A 5.492,5.492 0.0 0,0 2.85,0.645 A 5.04,5.04 0.0 0,0 0.645,2.848 C 0.4,3.328 0.245,3.82 0.15000000000000002,4.348 C 0.05700000000000002,4.868 0.028000000000000025,5.398 0.014000000000000012,5.9239999999999995 A 35.2,35.2 0.0 0,0 0.002000000000000012,6.648 C 0.0,6.935 0.0,7.221 0.0,7.508 L 0.0,16.492 C 0.0,16.779 0.0,17.067 0.002,17.354 C 0.004,17.593999999999998 0.007,17.835 0.014,18.076 C 0.028,18.602 0.056999999999999995,19.133 0.15000000000000002,19.652 C 0.24500000000000002,20.18 0.4,20.672 0.645,21.152 A 5.03,5.03 0.0 0,0 2.85,23.355 C 3.33,23.599 3.8200000000000003,23.755 4.348,23.85 C 4.868,23.943 5.398,23.974 5.9239999999999995,23.988000000000003 C 6.164999999999999,23.995000000000005 6.406999999999999,23.997000000000003 6.648,23.998000000000005 C 6.935,24.000000000000004 7.221,24.000000000000004 7.508,24.000000000000004 L 16.492,24.000000000000004 C 16.779,24.000000000000004 17.065,24.000000000000004 17.352,23.998000000000005 C 17.593,23.997000000000003 17.835,23.995000000000005 18.076,23.988000000000003 A 10.523,10.523 0.0 0,0 19.654,23.85 A 5.322,5.322 0.0 0,0 21.152,23.355 A 5.035,5.035 0.0 0,0 23.355,21.152 C 23.6,20.672 23.755,20.18 23.85,19.652 C 23.943,19.132 23.974,18.602 23.988000000000003,18.076 C 23.995000000000005,17.835 23.997000000000003,17.595 23.998000000000005,17.354 C 24.000000000000004,17.067 24.000000000000004,16.779 24.000000000000004,16.492 L 24.000000000000004,7.508 C 24.000000000000004,7.221 24.000000000000004,6.9350000000000005 23.998000000000005,6.648 A 33.662,33.662 0.0 0,0 23.988000000000003,5.9239999999999995 A 10.5,10.5 0.0 0,0 23.85,4.347999999999999 A 5.328,5.328 0.0 0,0 23.355,2.847999999999999 A 5.039,5.039 0.0 0,0 21.152,0.645 A 5.32,5.32 0.0 0,0 19.654,0.15 A 10.493,10.493 0.0 0,0 18.076,0.011999999999999983 A 34.98,34.98 0.0 0,0 17.354,0.0019999999999999827 C 17.067,0.0 16.779,0.0 16.492,0.0 L 7.508,0.0 M 13.543,3.41 C 17.657,5.880000000000001 20.088,10.572 19.092,14.541 C 19.067999999999998,14.634 19.041999999999998,14.722 19.016,14.813 L 19.017999999999997,14.814 C 21.08,17.352 20.517999999999997,20.072 20.253999999999998,19.559 C 19.182,17.473000000000003 17.188,17.991 16.165999999999997,18.516000000000002 A 6.803,6.803 0.0 0,1 15.884999999999996,18.674000000000003 L 15.864999999999997,18.686000000000003 L 15.862999999999996,18.688000000000002 C 13.747999999999996,19.811000000000003 10.905999999999995,19.893 8.050999999999995,18.666000000000004 A 12.568,12.568 0.0 0,1 2.410999999999995,13.828000000000003 C 3.059999999999995,14.308000000000003 3.7609999999999952,14.730000000000002 4.507999999999996,15.080000000000004 C 7.526999999999996,16.494000000000003 10.558999999999996,16.391000000000005 12.704999999999995,15.078000000000003 C 9.651,12.73 7.101,9.67 5.146,7.191 A 10.628,10.628 0.0 0,1 4.141,5.807 C 6.481,7.949 10.179,10.637 11.506,11.383 C 8.69,8.408 6.208,4.743 6.324,4.86 C 10.76,9.33 14.852,11.856000000000002 14.852,11.856000000000002 C 15.006,11.941000000000003 15.122,12.010000000000002 15.212,12.069 C 15.297,11.854000000000001 15.372,11.632000000000001 15.436,11.401000000000002 C 16.144,8.813000000000002 15.346,5.8530000000000015 13.543,3.4090000000000016 L 13.543,3.41"/>
</svg>
