<svg xmlns="http://www.w3.org/2000/svg" xmlns:xlink="http://www.w3.org/1999/xlink" viewBox="0 0 800 600" width="800" height="600" preserveAspectRatio="xMidYMid meet" style="width: 100%; height: 100%; transform: translate3d(0px, 0px, 0px); content-visibility: visible;"><defs><clipPath id="__lottie_element_2004"><rect width="800" height="600" x="0" y="0"></rect></clipPath><clipPath id="__lottie_element_2006"><path d="M0,0 L800,0 L800,600 L0,600z"></path></clipPath><clipPath id="__lottie_element_2082"><path d="M0,0 L800,0 L800,600 L0,600z"></path></clipPath><filter id="__lottie_element_2084" x="-100%" y="-100%" width="300%" height="300%"><feGaussianBlur result="filter_result_0" stdDeviation="12.389999999999999 12.389999999999999" edgeMode="duplicate"></feGaussianBlur></filter></defs><g clip-path="url(#__lottie_element_2004)"><g clip-path="url(#__lottie_element_2082)" filter="url(#__lottie_element_2084)" transform="matrix(1,0,0,1,0,20)" opacity="0.56" style="display: block;"><g style="display: none;" transform="matrix(-0.5,-0.8660253882408142,0.8660253882408142,-0.5,398.82940673828125,302.1284484863281)" opacity="1"><g opacity="1" transform="matrix(1,0,0,1,1.2580000162124634,2.078000068664551)"><path stroke-linecap="round" stroke-linejoin="miter" fill-opacity="0" stroke-miterlimit="4" stroke="rgb(250,126,37)" stroke-opacity="1" stroke-width="40" d=" M0,-100 C10.784000396728516,-100 21.17099952697754,-98.28900146484375 30.905000686645508,-95.125"></path></g></g><g style="display: none;" transform="matrix(-0.1736481785774231,-0.9848077297210693,0.9848077297210693,-0.1736481785774231,398.1720275878906,301.5997314453125)" opacity="1"><g opacity="1" transform="matrix(1,0,0,1,1.2580000162124634,2.078000068664551)"><path stroke-linecap="round" stroke-linejoin="miter" fill-opacity="0" stroke-miterlimit="4" stroke="rgb(250,126,37)" stroke-opacity="1" stroke-width="40" d=" M0,-100 C10.784000396728516,-100 21.17099952697754,-98.28900146484375 30.905000686645508,-95.125"></path></g></g><g style="display: none;" transform="matrix(0.1736481785774231,-0.9848077297210693,0.9848077297210693,0.1736481785774231,397.735107421875,300.8780517578125)" opacity="1"><g opacity="1" transform="matrix(1,0,0,1,1.2580000162124634,2.078000068664551)"><path stroke-linecap="round" stroke-linejoin="miter" fill-opacity="0" stroke-miterlimit="4" stroke="rgb(250,126,37)" stroke-opacity="1" stroke-width="40" d=" M0,-100 C10.784000396728516,-100 21.17099952697754,-98.28900146484375 30.905000686645508,-95.125"></path></g></g><g style="display: none;" transform="matrix(0.5,-0.8660253882408142,0.8660253882408142,0.5,397.5714111328125,300.0504455566406)" opacity="1"><g opacity="1" transform="matrix(1,0,0,1,1.2580000162124634,2.078000068664551)"><path stroke-linecap="round" stroke-linejoin="miter" fill-opacity="0" stroke-miterlimit="4" stroke="rgb(250,126,37)" stroke-opacity="1" stroke-width="40" d=" M50.25,-86.45800018310547 C59.3390007019043,-81.16000366210938 67.51899719238281,-74.47000122070312 74.49700164794922,-66.68099975585938"></path></g></g><g style="display: none;" transform="matrix(0.7660444378852844,-0.6427876353263855,0.6427876353263855,0.7660444378852844,397.7005920410156,299.216796875)" opacity="1"><g opacity="1" transform="matrix(1,0,0,1,1.2580000162124634,2.078000068664551)"><path stroke-linecap="round" stroke-linejoin="miter" fill-opacity="0" stroke-miterlimit="4" stroke="rgb(250,126,37)" stroke-opacity="1" stroke-width="40" d=" M99.93499755859375,-3.6440000534057617 C99.97799682617188,-2.434999942779541 100,-1.2200000286102295 100,0 C100,9.506999969482422 98.66999816894531,18.704999923706055 96.18699645996094,27.420000076293945"></path></g></g><g style="display: none;" transform="matrix(0.9396926164627075,-0.3420201539993286,0.3420201539993286,0.9396926164627075,398.1071472167969,298.4775695800781)" opacity="1"><g opacity="1" transform="matrix(1,0,0,1,1.2580000162124634,2.078000068664551)"><path stroke-linecap="round" stroke-linejoin="miter" fill-opacity="0" stroke-miterlimit="4" stroke="rgb(250,126,37)" stroke-opacity="1" stroke-width="40" d=" M86.61599731445312,49.979000091552734 C81.34600067138672,59.084999084472656 74.68099975585938,67.28600311279297 66.91500091552734,74.28700256347656"></path></g></g><g style="display: none;" transform="matrix(1,0,0,1,398.74200439453125,297.9219970703125)" opacity="1"><g opacity="1" transform="matrix(1,0,0,1,1.2580000162124634,2.078000068664551)"><path stroke-linecap="round" stroke-linejoin="miter" fill-opacity="0" stroke-miterlimit="4" stroke="rgb(250,126,37)" stroke-opacity="1" stroke-width="40" d=" M86.61599731445312,49.979000091552734 C81.34600067138672,59.084999084472656 74.68099975585938,67.28600311279297 66.91500091552734,74.28700256347656"></path></g></g><g style="display: none;" transform="matrix(0.9396926164627075,0.3420201539993286,-0.3420201539993286,0.9396926164627075,399.5285949707031,297.6170654296875)" opacity="1"><g opacity="1" transform="matrix(1,0,0,1,1.2580000162124634,2.078000068664551)"><path stroke-linecap="round" stroke-linejoin="miter" fill-opacity="0" stroke-miterlimit="4" stroke="rgb(250,126,37)" stroke-opacity="1" stroke-width="40" d=" M86.61599731445312,49.979000091552734 C81.34600067138672,59.084999084472656 74.68099975585938,67.28600311279297 66.91500091552734,74.28700256347656"></path></g></g><g style="display: none;" transform="matrix(0.7660444378852844,0.6427876353263855,-0.6427876353263855,0.7660444378852844,400.3720397949219,297.5995178222656)" opacity="1"><g opacity="1" transform="matrix(1,0,0,1,1.2580000162124634,2.078000068664551)"><path stroke-linecap="round" stroke-linejoin="miter" fill-opacity="0" stroke-miterlimit="4" stroke="rgb(250,126,37)" stroke-opacity="1" stroke-width="40" d=" M86.61599731445312,49.979000091552734 C81.34600067138672,59.084999084472656 74.68099975585938,67.28600311279297 66.91500091552734,74.28700256347656"></path></g></g><g style="display: none;" transform="matrix(0.5,0.8660253882408142,-0.8660253882408142,0.5,401.17059326171875,297.8715515136719)" opacity="1"><g opacity="1" transform="matrix(1,0,0,1,1.2580000162124634,2.078000068664551)"><path stroke-linecap="round" stroke-linejoin="miter" fill-opacity="0" stroke-miterlimit="4" stroke="rgb(250,126,37)" stroke-opacity="1" stroke-width="40" d=" M86.61599731445312,49.979000091552734 C81.34600067138672,59.084999084472656 74.68099975585938,67.28600311279297 66.91500091552734,74.28700256347656"></path></g></g><g style="display: none;" transform="matrix(0.1736481785774231,0.9848077297210693,-0.9848077297210693,0.1736481785774231,401.8279724121094,298.4002685546875)" opacity="1"><g opacity="1" transform="matrix(1,0,0,1,1.2580000162124634,2.078000068664551)"><path stroke-linecap="round" stroke-linejoin="miter" fill-opacity="0" stroke-miterlimit="4" stroke="rgb(250,126,37)" stroke-opacity="1" stroke-width="40" d=" M86.61599731445312,49.979000091552734 C81.34600067138672,59.084999084472656 74.68099975585938,67.28600311279297 66.91500091552734,74.28700256347656"></path></g></g><g style="display: none;" transform="matrix(-0.1736481785774231,0.9848077297210693,-0.9848077297210693,-0.1736481785774231,402.264892578125,299.1219482421875)" opacity="1"><g opacity="1" transform="matrix(1,0,0,1,1.2580000162124634,2.078000068664551)"><path stroke-linecap="round" stroke-linejoin="miter" fill-opacity="0" stroke-miterlimit="4" stroke="rgb(250,126,37)" stroke-opacity="1" stroke-width="40" d=" M86.61599731445312,49.979000091552734 C81.34600067138672,59.084999084472656 74.68099975585938,67.28600311279297 66.91500091552734,74.28700256347656"></path></g></g><g transform="matrix(-0.5,0.8660253882408142,-0.8660253882408142,-0.5,402.4285888671875,299.9495544433594)" opacity="1" style="display: block;"><g opacity="1" transform="matrix(1,0,0,1,1.2580000162124634,2.078000068664551)"><path stroke-linecap="round" stroke-linejoin="miter" fill-opacity="0" stroke-miterlimit="4" stroke="rgb(250,126,37)" stroke-opacity="1" stroke-width="40" d=" M0,-100 C10.784000396728516,-100 21.17099952697754,-98.28900146484375 30.905000686645508,-95.125"></path></g></g><g transform="matrix(-0.7660444378852844,0.6427876353263855,-0.6427876353263855,-0.7660444378852844,402.2994079589844,300.783203125)" opacity="1" style="display: block;"><g opacity="1" transform="matrix(1,0,0,1,1.2580000162124634,2.078000068664551)"><path stroke-linecap="round" stroke-linejoin="miter" fill-opacity="0" stroke-miterlimit="4" stroke="rgb(250,126,37)" stroke-opacity="1" stroke-width="40" d=" M0,-100 C10.784000396728516,-100 21.17099952697754,-98.28900146484375 30.905000686645508,-95.125"></path></g></g><g transform="matrix(-0.9396926164627075,0.3420201539993286,-0.3420201539993286,-0.9396926164627075,401.8928527832031,301.5224304199219)" opacity="1" style="display: block;"><g opacity="1" transform="matrix(1,0,0,1,1.2580000162124634,2.078000068664551)"><path stroke-linecap="round" stroke-linejoin="miter" fill-opacity="0" stroke-miterlimit="4" stroke="rgb(250,126,37)" stroke-opacity="1" stroke-width="40" d=" M0,-100 C10.784000396728516,-100 21.17099952697754,-98.28900146484375 30.905000686645508,-95.125"></path></g></g><g transform="matrix(-1,0,0,-1,401.25799560546875,302.0780029296875)" opacity="1" style="display: block;"><g opacity="1" transform="matrix(1,0,0,1,1.2580000162124634,2.078000068664551)"><path stroke-linecap="round" stroke-linejoin="miter" fill-opacity="0" stroke-miterlimit="4" stroke="rgb(250,126,37)" stroke-opacity="1" stroke-width="40" d=" M0,-100 C10.784000396728516,-100 21.17099952697754,-98.28900146484375 30.905000686645508,-95.125"></path></g></g><g transform="matrix(-0.9396926164627075,-0.3420201539993286,0.3420201539993286,-0.9396926164627075,400.4714050292969,302.3829345703125)" opacity="1" style="display: block;"><g opacity="1" transform="matrix(1,0,0,1,1.2580000162124634,2.078000068664551)"><path stroke-linecap="round" stroke-linejoin="miter" fill-opacity="0" stroke-miterlimit="4" stroke="rgb(250,126,37)" stroke-opacity="1" stroke-width="40" d=" M0,-100 C10.784000396728516,-100 21.17099952697754,-98.28900146484375 30.905000686645508,-95.125"></path></g></g><g transform="matrix(-0.7660444378852844,-0.6427876353263855,0.6427876353263855,-0.7660444378852844,399.6279602050781,302.4004821777344)" opacity="1" style="display: block;"><g opacity="1" transform="matrix(1,0,0,1,1.2580000162124634,2.078000068664551)"><path stroke-linecap="round" stroke-linejoin="miter" fill-opacity="0" stroke-miterlimit="4" stroke="rgb(250,126,37)" stroke-opacity="1" stroke-width="40" d=" M0,-100 C10.784000396728516,-100 21.17099952697754,-98.28900146484375 30.905000686645508,-95.125"></path></g></g><g transform="matrix(-0.5,-0.8660253882408142,0.8660253882408142,-0.5,398.82940673828125,302.1284484863281)" opacity="1" style="display: block;"><g opacity="1" transform="matrix(1,0,0,1,1.2580000162124634,2.078000068664551)"><path stroke-linecap="round" stroke-linejoin="miter" fill-opacity="0" stroke-miterlimit="4" stroke="rgb(250,126,37)" stroke-opacity="1" stroke-width="40" d=" M9.286999702453613,-99.5739974975586 C19.96500015258789,-98.58799743652344 30.159000396728516,-95.9209976196289 39.60200119018555,-91.83999633789062"></path></g></g><g transform="matrix(-0.1736481785774231,-0.9848077297210693,0.9848077297210693,-0.1736481785774231,398.1720275878906,301.5997314453125)" opacity="1" style="display: block;"><g opacity="1" transform="matrix(1,0,0,1,1.2580000162124634,2.078000068664551)"><path stroke-linecap="round" stroke-linejoin="miter" fill-opacity="0" stroke-miterlimit="4" stroke="rgb(250,126,37)" stroke-opacity="1" stroke-width="40" d=" M79.7699966430664,-60.28200149536133 C86.04499816894531,-51.99599838256836 91.05799865722656,-42.70399856567383 94.5250015258789,-32.69200134277344"></path></g></g><g transform="matrix(0.1736481785774231,-0.9848077297210693,0.9848077297210693,0.1736481785774231,397.735107421875,300.8780517578125)" opacity="1" style="display: block;"><g opacity="1" transform="matrix(1,0,0,1,1.2580000162124634,2.078000068664551)"><path stroke-linecap="round" stroke-linejoin="miter" fill-opacity="0" stroke-miterlimit="4" stroke="rgb(250,126,37)" stroke-opacity="1" stroke-width="40" d=" M95.74500274658203,28.927000045776367 C92.67500305175781,39.08700180053711 88.03099822998047,48.566001892089844 82.09700012207031,57.08000183105469"></path></g></g><g transform="matrix(0.5,-0.8660253882408142,0.8660253882408142,0.5,397.5714111328125,300.0504455566406)" opacity="1" style="display: block;"><g opacity="1" transform="matrix(1,0,0,1,1.2580000162124634,2.078000068664551)"><path stroke-linecap="round" stroke-linejoin="miter" fill-opacity="0" stroke-miterlimit="4" stroke="rgb(250,126,37)" stroke-opacity="1" stroke-width="40" d=" M86.61599731445312,49.979000091552734 C81.34600067138672,59.084999084472656 74.68099975585938,67.28600311279297 66.91500091552734,74.28700256347656"></path></g></g><g transform="matrix(0.7660444378852844,-0.6427876353263855,0.6427876353263855,0.7660444378852844,397.7005920410156,299.216796875)" opacity="1" style="display: block;"><g opacity="1" transform="matrix(1,0,0,1,1.2580000162124634,2.078000068664551)"><path stroke-linecap="round" stroke-linejoin="miter" fill-opacity="0" stroke-miterlimit="4" stroke="rgb(250,126,37)" stroke-opacity="1" stroke-width="40" d=" M86.61599731445312,49.979000091552734 C81.34600067138672,59.084999084472656 74.68099975585938,67.28600311279297 66.91500091552734,74.28700256347656"></path></g></g><g transform="matrix(0.9396926164627075,-0.3420201539993286,0.3420201539993286,0.9396926164627075,398.1071472167969,298.4775695800781)" opacity="1" style="display: block;"><g opacity="1" transform="matrix(1,0,0,1,1.2580000162124634,2.078000068664551)"><path stroke-linecap="round" stroke-linejoin="miter" fill-opacity="0" stroke-miterlimit="4" stroke="rgb(250,126,37)" stroke-opacity="1" stroke-width="40" d=" M86.61599731445312,49.979000091552734 C81.34600067138672,59.084999084472656 74.68099975585938,67.28600311279297 66.91500091552734,74.28700256347656"></path></g></g></g><g clip-path="url(#__lottie_element_2006)" transform="matrix(1,0,0,1,0,0)" opacity="1" style="display: block;"><g style="display: none;" transform="matrix(-0.5,-0.8660253882408142,0.8660253882408142,-0.5,398.82940673828125,302.1284484863281)" opacity="1"><g opacity="1" transform="matrix(1,0,0,1,1.2580000162124634,2.078000068664551)"><path stroke-linecap="round" stroke-linejoin="miter" fill-opacity="0" stroke-miterlimit="4" stroke="rgb(250,126,37)" stroke-opacity="1" stroke-width="40" d=" M0,-100 C10.784000396728516,-100 21.17099952697754,-98.28900146484375 30.905000686645508,-95.125"></path></g></g><g style="display: none;" transform="matrix(-0.1736481785774231,-0.9848077297210693,0.9848077297210693,-0.1736481785774231,398.1720275878906,301.5997314453125)" opacity="1"><g opacity="1" transform="matrix(1,0,0,1,1.2580000162124634,2.078000068664551)"><path stroke-linecap="round" stroke-linejoin="miter" fill-opacity="0" stroke-miterlimit="4" stroke="rgb(250,126,37)" stroke-opacity="1" stroke-width="40" d=" M0,-100 C10.784000396728516,-100 21.17099952697754,-98.28900146484375 30.905000686645508,-95.125"></path></g></g><g style="display: none;" transform="matrix(0.1736481785774231,-0.9848077297210693,0.9848077297210693,0.1736481785774231,397.735107421875,300.8780517578125)" opacity="1"><g opacity="1" transform="matrix(1,0,0,1,1.2580000162124634,2.078000068664551)"><path stroke-linecap="round" stroke-linejoin="miter" fill-opacity="0" stroke-miterlimit="4" stroke="rgb(250,126,37)" stroke-opacity="1" stroke-width="40" d=" M0,-100 C10.784000396728516,-100 21.17099952697754,-98.28900146484375 30.905000686645508,-95.125"></path></g></g><g style="display: none;" transform="matrix(0.5,-0.8660253882408142,0.8660253882408142,0.5,397.5714111328125,300.0504455566406)" opacity="1"><g opacity="1" transform="matrix(1,0,0,1,1.2580000162124634,2.078000068664551)"><path stroke-linecap="round" stroke-linejoin="miter" fill-opacity="0" stroke-miterlimit="4" stroke="rgb(250,126,37)" stroke-opacity="1" stroke-width="40" d=" M50.25,-86.45800018310547 C59.3390007019043,-81.16000366210938 67.51899719238281,-74.47000122070312 74.49700164794922,-66.68099975585938"></path></g></g><g style="display: none;" transform="matrix(0.7660444378852844,-0.6427876353263855,0.6427876353263855,0.7660444378852844,397.7005920410156,299.216796875)" opacity="1"><g opacity="1" transform="matrix(1,0,0,1,1.2580000162124634,2.078000068664551)"><path stroke-linecap="round" stroke-linejoin="miter" fill-opacity="0" stroke-miterlimit="4" stroke="rgb(250,126,37)" stroke-opacity="1" stroke-width="40" d=" M99.93499755859375,-3.6440000534057617 C99.97799682617188,-2.434999942779541 100,-1.2200000286102295 100,0 C100,9.506999969482422 98.66999816894531,18.704999923706055 96.18699645996094,27.420000076293945"></path></g></g><g style="display: none;" transform="matrix(0.9396926164627075,-0.3420201539993286,0.3420201539993286,0.9396926164627075,398.1071472167969,298.4775695800781)" opacity="1"><g opacity="1" transform="matrix(1,0,0,1,1.2580000162124634,2.078000068664551)"><path stroke-linecap="round" stroke-linejoin="miter" fill-opacity="0" stroke-miterlimit="4" stroke="rgb(250,126,37)" stroke-opacity="1" stroke-width="40" d=" M86.61599731445312,49.979000091552734 C81.34600067138672,59.084999084472656 74.68099975585938,67.28600311279297 66.91500091552734,74.28700256347656"></path></g></g><g style="display: none;" transform="matrix(1,0,0,1,398.74200439453125,297.9219970703125)" opacity="1"><g opacity="1" transform="matrix(1,0,0,1,1.2580000162124634,2.078000068664551)"><path stroke-linecap="round" stroke-linejoin="miter" fill-opacity="0" stroke-miterlimit="4" stroke="rgb(250,126,37)" stroke-opacity="1" stroke-width="40" d=" M86.61599731445312,49.979000091552734 C81.34600067138672,59.084999084472656 74.68099975585938,67.28600311279297 66.91500091552734,74.28700256347656"></path></g></g><g style="display: none;" transform="matrix(0.9396926164627075,0.3420201539993286,-0.3420201539993286,0.9396926164627075,399.5285949707031,297.6170654296875)" opacity="1"><g opacity="1" transform="matrix(1,0,0,1,1.2580000162124634,2.078000068664551)"><path stroke-linecap="round" stroke-linejoin="miter" fill-opacity="0" stroke-miterlimit="4" stroke="rgb(250,126,37)" stroke-opacity="1" stroke-width="40" d=" M86.61599731445312,49.979000091552734 C81.34600067138672,59.084999084472656 74.68099975585938,67.28600311279297 66.91500091552734,74.28700256347656"></path></g></g><g style="display: none;" transform="matrix(0.7660444378852844,0.6427876353263855,-0.6427876353263855,0.7660444378852844,400.3720397949219,297.5995178222656)" opacity="1"><g opacity="1" transform="matrix(1,0,0,1,1.2580000162124634,2.078000068664551)"><path stroke-linecap="round" stroke-linejoin="miter" fill-opacity="0" stroke-miterlimit="4" stroke="rgb(250,126,37)" stroke-opacity="1" stroke-width="40" d=" M86.61599731445312,49.979000091552734 C81.34600067138672,59.084999084472656 74.68099975585938,67.28600311279297 66.91500091552734,74.28700256347656"></path></g></g><g style="display: none;" transform="matrix(0.5,0.8660253882408142,-0.8660253882408142,0.5,401.17059326171875,297.8715515136719)" opacity="1"><g opacity="1" transform="matrix(1,0,0,1,1.2580000162124634,2.078000068664551)"><path stroke-linecap="round" stroke-linejoin="miter" fill-opacity="0" stroke-miterlimit="4" stroke="rgb(250,126,37)" stroke-opacity="1" stroke-width="40" d=" M86.61599731445312,49.979000091552734 C81.34600067138672,59.084999084472656 74.68099975585938,67.28600311279297 66.91500091552734,74.28700256347656"></path></g></g><g style="display: none;" transform="matrix(0.1736481785774231,0.9848077297210693,-0.9848077297210693,0.1736481785774231,401.8279724121094,298.4002685546875)" opacity="1"><g opacity="1" transform="matrix(1,0,0,1,1.2580000162124634,2.078000068664551)"><path stroke-linecap="round" stroke-linejoin="miter" fill-opacity="0" stroke-miterlimit="4" stroke="rgb(250,126,37)" stroke-opacity="1" stroke-width="40" d=" M86.61599731445312,49.979000091552734 C81.34600067138672,59.084999084472656 74.68099975585938,67.28600311279297 66.91500091552734,74.28700256347656"></path></g></g><g style="display: none;" transform="matrix(-0.1736481785774231,0.9848077297210693,-0.9848077297210693,-0.1736481785774231,402.264892578125,299.1219482421875)" opacity="1"><g opacity="1" transform="matrix(1,0,0,1,1.2580000162124634,2.078000068664551)"><path stroke-linecap="round" stroke-linejoin="miter" fill-opacity="0" stroke-miterlimit="4" stroke="rgb(250,126,37)" stroke-opacity="1" stroke-width="40" d=" M86.61599731445312,49.979000091552734 C81.34600067138672,59.084999084472656 74.68099975585938,67.28600311279297 66.91500091552734,74.28700256347656"></path></g></g><g transform="matrix(-0.5,0.8660253882408142,-0.8660253882408142,-0.5,402.4285888671875,299.9495544433594)" opacity="1" style="display: block;"><g opacity="1" transform="matrix(1,0,0,1,1.2580000162124634,2.078000068664551)"><path stroke-linecap="round" stroke-linejoin="miter" fill-opacity="0" stroke-miterlimit="4" stroke="rgb(250,126,37)" stroke-opacity="1" stroke-width="40" d=" M0,-100 C10.784000396728516,-100 21.17099952697754,-98.28900146484375 30.905000686645508,-95.125"></path></g></g><g transform="matrix(-0.7660444378852844,0.6427876353263855,-0.6427876353263855,-0.7660444378852844,402.2994079589844,300.783203125)" opacity="1" style="display: block;"><g opacity="1" transform="matrix(1,0,0,1,1.2580000162124634,2.078000068664551)"><path stroke-linecap="round" stroke-linejoin="miter" fill-opacity="0" stroke-miterlimit="4" stroke="rgb(250,126,37)" stroke-opacity="1" stroke-width="40" d=" M0,-100 C10.784000396728516,-100 21.17099952697754,-98.28900146484375 30.905000686645508,-95.125"></path></g></g><g transform="matrix(-0.9396926164627075,0.3420201539993286,-0.3420201539993286,-0.9396926164627075,401.8928527832031,301.5224304199219)" opacity="1" style="display: block;"><g opacity="1" transform="matrix(1,0,0,1,1.2580000162124634,2.078000068664551)"><path stroke-linecap="round" stroke-linejoin="miter" fill-opacity="0" stroke-miterlimit="4" stroke="rgb(250,126,37)" stroke-opacity="1" stroke-width="40" d=" M0,-100 C10.784000396728516,-100 21.17099952697754,-98.28900146484375 30.905000686645508,-95.125"></path></g></g><g transform="matrix(-1,0,0,-1,401.25799560546875,302.0780029296875)" opacity="1" style="display: block;"><g opacity="1" transform="matrix(1,0,0,1,1.2580000162124634,2.078000068664551)"><path stroke-linecap="round" stroke-linejoin="miter" fill-opacity="0" stroke-miterlimit="4" stroke="rgb(250,126,37)" stroke-opacity="1" stroke-width="40" d=" M0,-100 C10.784000396728516,-100 21.17099952697754,-98.28900146484375 30.905000686645508,-95.125"></path></g></g><g transform="matrix(-0.9396926164627075,-0.3420201539993286,0.3420201539993286,-0.9396926164627075,400.4714050292969,302.3829345703125)" opacity="1" style="display: block;"><g opacity="1" transform="matrix(1,0,0,1,1.2580000162124634,2.078000068664551)"><path stroke-linecap="round" stroke-linejoin="miter" fill-opacity="0" stroke-miterlimit="4" stroke="rgb(250,126,37)" stroke-opacity="1" stroke-width="40" d=" M0,-100 C10.784000396728516,-100 21.17099952697754,-98.28900146484375 30.905000686645508,-95.125"></path></g></g><g transform="matrix(-0.7660444378852844,-0.6427876353263855,0.6427876353263855,-0.7660444378852844,399.6279602050781,302.4004821777344)" opacity="1" style="display: block;"><g opacity="1" transform="matrix(1,0,0,1,1.2580000162124634,2.078000068664551)"><path stroke-linecap="round" stroke-linejoin="miter" fill-opacity="0" stroke-miterlimit="4" stroke="rgb(250,126,37)" stroke-opacity="1" stroke-width="40" d=" M0,-100 C10.784000396728516,-100 21.17099952697754,-98.28900146484375 30.905000686645508,-95.125"></path></g></g><g transform="matrix(-0.5,-0.8660253882408142,0.8660253882408142,-0.5,398.82940673828125,302.1284484863281)" opacity="1" style="display: block;"><g opacity="1" transform="matrix(1,0,0,1,1.2580000162124634,2.078000068664551)"><path stroke-linecap="round" stroke-linejoin="miter" fill-opacity="0" stroke-miterlimit="4" stroke="rgb(250,126,37)" stroke-opacity="1" stroke-width="40" d=" M9.286999702453613,-99.5739974975586 C19.96500015258789,-98.58799743652344 30.159000396728516,-95.9209976196289 39.60200119018555,-91.83999633789062"></path></g></g><g transform="matrix(-0.1736481785774231,-0.9848077297210693,0.9848077297210693,-0.1736481785774231,398.1720275878906,301.5997314453125)" opacity="1" style="display: block;"><g opacity="1" transform="matrix(1,0,0,1,1.2580000162124634,2.078000068664551)"><path stroke-linecap="round" stroke-linejoin="miter" fill-opacity="0" stroke-miterlimit="4" stroke="rgb(250,126,37)" stroke-opacity="1" stroke-width="40" d=" M79.7699966430664,-60.28200149536133 C86.04499816894531,-51.99599838256836 91.05799865722656,-42.70399856567383 94.5250015258789,-32.69200134277344"></path></g></g><g transform="matrix(0.1736481785774231,-0.9848077297210693,0.9848077297210693,0.1736481785774231,397.735107421875,300.8780517578125)" opacity="1" style="display: block;"><g opacity="1" transform="matrix(1,0,0,1,1.2580000162124634,2.078000068664551)"><path stroke-linecap="round" stroke-linejoin="miter" fill-opacity="0" stroke-miterlimit="4" stroke="rgb(250,126,37)" stroke-opacity="1" stroke-width="40" d=" M95.74500274658203,28.927000045776367 C92.67500305175781,39.08700180053711 88.03099822998047,48.566001892089844 82.09700012207031,57.08000183105469"></path></g></g><g transform="matrix(0.5,-0.8660253882408142,0.8660253882408142,0.5,397.5714111328125,300.0504455566406)" opacity="1" style="display: block;"><g opacity="1" transform="matrix(1,0,0,1,1.2580000162124634,2.078000068664551)"><path stroke-linecap="round" stroke-linejoin="miter" fill-opacity="0" stroke-miterlimit="4" stroke="rgb(250,126,37)" stroke-opacity="1" stroke-width="40" d=" M86.61599731445312,49.979000091552734 C81.34600067138672,59.084999084472656 74.68099975585938,67.28600311279297 66.91500091552734,74.28700256347656"></path></g></g><g transform="matrix(0.7660444378852844,-0.6427876353263855,0.6427876353263855,0.7660444378852844,397.7005920410156,299.216796875)" opacity="1" style="display: block;"><g opacity="1" transform="matrix(1,0,0,1,1.2580000162124634,2.078000068664551)"><path stroke-linecap="round" stroke-linejoin="miter" fill-opacity="0" stroke-miterlimit="4" stroke="rgb(250,126,37)" stroke-opacity="1" stroke-width="40" d=" M86.61599731445312,49.979000091552734 C81.34600067138672,59.084999084472656 74.68099975585938,67.28600311279297 66.91500091552734,74.28700256347656"></path></g></g><g transform="matrix(0.9396926164627075,-0.3420201539993286,0.3420201539993286,0.9396926164627075,398.1071472167969,298.4775695800781)" opacity="1" style="display: block;"><g opacity="1" transform="matrix(1,0,0,1,1.2580000162124634,2.078000068664551)"><path stroke-linecap="round" stroke-linejoin="miter" fill-opacity="0" stroke-miterlimit="4" stroke="rgb(250,126,37)" stroke-opacity="1" stroke-width="40" d=" M86.61599731445312,49.979000091552734 C81.34600067138672,59.084999084472656 74.68099975585938,67.28600311279297 66.91500091552734,74.28700256347656"></path></g></g></g></g></svg>